<?xml version="1.0" encoding="UTF-8"?>
<svg width="50px" height="50px" viewBox="0 0 50 50" version="1.1" xmlns="http://www.w3.org/2000/svg" xmlns:xlink="http://www.w3.org/1999/xlink">
    <!-- Generator: Sketch 48.2 (47327) - http://www.bohemiancoding.com/sketch -->
    <title>cloud1 copy 6</title>
    <desc>Created with Sketch.</desc>
    <defs></defs>
    <g id="Page-1" stroke="none" stroke-width="1" fill="none" fill-rule="evenodd">
        <g id="cloud1-copy-6">
            <path d="M39.9185903,25.5818472 C40.920912,27.3575648 41.4928644,29.4084518 41.4928644,31.5929255 C41.4928644,38.3564432 36.0099499,43.8393577 29.2464322,43.8393577 C22.4829145,43.8393577 17,38.3564432 17,31.5929255 C10.9567633,31.5929255 6.05775193,26.6939142 6.05775193,20.6506774 C6.05775193,14.6074407 10.9567633,9.70842937 17,9.70842937 C18.915811,9.70842937 20.7166273,10.2007801 22.2828205,11.065853 C23.9808393,10.197964 25.9043752,9.70842937 27.9422481,9.70842937 C28.3837771,9.70842937 28.8199388,9.73140925 29.2496026,9.77623824 C30.6790783,7.59861566 33.1427349,6.1606423 35.9422481,6.1606423 C40.3605261,6.1606423 43.9422481,9.7423643 43.9422481,14.1606423 C43.9422481,16.9601555 42.5042747,19.423812 40.3266521,20.8532878 C40.3714811,21.2829515 40.394461,21.7191133 40.394461,22.1606423 C40.394461,23.3471146 40.2285235,24.4948301 39.9185903,25.5818472 Z" id="Combined-Shape" stroke="#E6E6E6" fill="#EAEAEA"></path>
            <path d="M32.5030209,32.806039 C33.4217955,34.1253655 34.9497348,34.9887804 36.6793354,34.9887804 C39.4880718,34.9887804 41.7650025,32.7118496 41.7650025,29.9031133 C41.7650025,29.513878 41.7212752,29.1348558 41.6384651,28.7706911 C42.2117088,29.5938478 42.5478177,30.5944811 42.5478177,31.6736168 C42.5478177,34.4823532 40.270887,36.7592839 37.4621506,36.7592839 C35.0426495,36.7592839 33.0177716,35.069701 32.5030209,32.806039 Z" id="Combined-Shape" fill="#CACACA" transform="translate(37.525419, 32.764988) rotate(-39.000000) translate(-37.525419, -32.764988) "></path>
            <path d="M23.9920542,30.424762 C24.7278122,31.4812833 25.9513914,32.172709 27.3364617,32.172709 C29.5857078,32.172709 31.409082,30.3493348 31.409082,28.1000888 C31.409082,27.7883878 31.374065,27.4848655 31.3077504,27.1932411 C31.766806,27.8524279 32.0359632,28.6537386 32.0359632,29.5179143 C32.0359632,31.7671604 30.212589,33.5905346 27.9633429,33.5905346 C26.0257978,33.5905346 24.4042684,32.2375106 23.9920542,30.424762 Z" id="Combined-Shape-Copy-8" fill="#CACACA" transform="translate(28.014009, 30.391888) rotate(2.000000) translate(-28.014009, -30.391888) "></path>
            <path d="M28.1231898,25.0328742 C28.8589478,26.0893955 30.082527,26.7808212 31.4675973,26.7808212 C33.7168433,26.7808212 35.5402175,24.957447 35.5402175,22.708201 C35.5402175,22.3965 35.5052006,22.0929777 35.438886,21.8013532 C35.8979415,22.46054 36.1670987,23.2618508 36.1670987,24.1260265 C36.1670987,26.3752726 34.3437245,28.1986468 32.0944785,28.1986468 C30.1569334,28.1986468 28.535404,26.8456227 28.1231898,25.0328742 Z" id="Combined-Shape-Copy-9" fill="#CACACA" transform="translate(32.145144, 25.000000) rotate(2.000000) translate(-32.145144, -25.000000) "></path>
            <path d="M28.4411762,38.7344364 C29.3599508,40.0537629 30.8878901,40.9171778 32.6174907,40.9171778 C35.4262271,40.9171778 37.7031578,38.6402471 37.7031578,35.8315107 C37.7031578,35.4422755 37.6594306,35.0632533 37.5766205,34.6990885 C38.1498641,35.5222452 38.485973,36.5228785 38.485973,37.6020143 C38.485973,40.4107506 36.2090423,42.6876813 33.4003059,42.6876813 C30.9808048,42.6876813 28.9559269,40.9980984 28.4411762,38.7344364 Z" id="Combined-Shape-Copy-6" fill="#CACACA" transform="translate(33.463575, 38.693385) rotate(29.000000) translate(-33.463575, -38.693385) "></path>
            <path d="M14.8896168,35.9580558 C16.267591,37.9367758 18.5591876,39.2317216 21.1532349,39.2317216 C25.3657653,39.2317216 28.780696,35.816791 28.780696,31.6042606 C28.780696,31.0204873 28.715114,30.4520315 28.5909158,29.9058588 C29.4506641,31.1404256 29.9547587,32.641171 29.9547587,34.259654 C29.9547587,38.4721844 26.5398281,41.887115 22.3272977,41.887115 C18.6985406,41.887115 15.6616377,39.353086 14.8896168,35.9580558 Z" id="Combined-Shape-Copy-7" fill="#CACACA" transform="translate(22.422188, 35.896487) rotate(64.000000) translate(-22.422188, -35.896487) "></path>
            <path d="M32.846599,12.1590976 C33.7643775,13.4769937 35.2906603,14.3394725 37.0183858,14.3394725 C39.8240771,14.3394725 42.0985392,12.0650103 42.0985392,9.25931902 C42.0985392,8.87050576 42.0548594,8.49189448 41.9721391,8.12812454 C42.5447612,8.95038881 42.8805057,9.94993729 42.8805057,11.0279031 C42.8805057,13.8335944 40.6060436,16.1080566 37.8003523,16.1080566 C35.3834742,16.1080566 33.3607916,14.4203054 32.846599,12.1590976 Z" id="Combined-Shape-Copy" fill="#FFFFFF" transform="translate(37.863552, 12.118091) rotate(-123.000000) translate(-37.863552, -12.118091) "></path>
            <path d="M6.3518185,18.9936393 C7.82374177,21.0428129 10.2715775,22.3838661 13.0424848,22.3838661 C17.5422221,22.3838661 21.1899798,18.8473447 21.1899798,14.4848244 C21.1899798,13.8802655 21.1199265,13.2915694 20.9872606,12.7259499 C21.9056258,14.0044742 22.4440892,15.5586547 22.4440892,17.2347648 C22.4440892,21.5972851 18.7963314,25.1338066 14.2965942,25.1338066 C10.4204315,25.1338066 7.1764751,22.5095518 6.3518185,18.9936393 Z" id="Combined-Shape-Copy-2" fill="#FFFDFD" transform="translate(14.397954, 18.929878) rotate(136.000000) translate(-14.397954, -18.929878) "></path>
            <path d="M11.7769662,25.5411455 C12.6947448,26.8590416 14.2210276,27.7215204 15.948753,27.7215204 C18.7544443,27.7215204 21.0289065,25.4470582 21.0289065,22.6413669 C21.0289065,22.2525537 20.9852267,21.8739424 20.9025064,21.5101724 C21.4751285,22.3324367 21.810873,23.3319852 21.810873,24.409951 C21.810873,27.2156423 19.5364108,29.4901045 16.7307196,29.4901045 C14.3138415,29.4901045 12.2911589,27.8023533 11.7769662,25.5411455 Z" id="Combined-Shape-Copy-5" fill="#FFFFFF" transform="translate(16.793920, 25.500138) rotate(134.000000) translate(-16.793920, -25.500138) "></path>
            <g id="Group" transform="translate(29.041611, 16.118783) rotate(40.000000) translate(-29.041611, -16.118783) translate(20.041611, 10.118783)" fill="#FFFFFF">
                <path d="M1.66118599,5.94035367 C2.45861665,7.08543466 3.78475864,7.834817 5.28592825,7.834817 C7.7237105,7.834817 9.69992348,5.85860403 9.69992348,3.42082178 C9.69992348,3.08299344 9.66197135,2.75402928 9.59009811,2.43796033 C10.0876326,3.15240146 10.3793511,4.02087959 10.3793511,4.95749222 C10.3793511,7.39527447 8.40313809,9.37148744 5.96535584,9.37148744 C3.86540195,9.37148744 2.10795279,7.90505032 1.66118599,5.94035367 Z" id="Combined-Shape-Copy-3" transform="translate(6.020269, 5.904724) rotate(149.000000) translate(-6.020269, -5.904724) "></path>
                <path d="M8.66080452,4.55715439 C9.45823518,5.70223537 10.7843772,6.45161772 12.2855468,6.45161772 C14.723329,6.45161772 16.699542,4.47540474 16.699542,2.0376225 C16.699542,1.69979415 16.6615899,1.37082999 16.5897166,1.05476104 C17.0872511,1.76920217 17.3789696,2.6376803 17.3789696,3.57429293 C17.3789696,6.01207518 15.4027566,7.98828815 12.9649744,7.98828815 C10.8650205,7.98828815 9.10757132,6.52185103 8.66080452,4.55715439 Z" id="Combined-Shape-Copy-4" transform="translate(13.019887, 4.521525) rotate(-175.000000) translate(-13.019887, -4.521525) "></path>
            </g>
        </g>
    </g>
</svg>